<svg width="339" height="51" viewBox="0 0 339 51" fill="none" xmlns="http://www.w3.org/2000/svg">
<g filter="url(#filter0_d_24_85)">
<path d="M50.52 25V5.4H54.188L60.152 14.668L66.116 5.4H69.784V25H66.34V10.944L60.152 20.184H60.04L53.908 11V25H50.52ZM76.3406 29.564C74.9126 29.564 73.8766 29.228 72.8406 28.668L73.9886 26.148C74.6046 26.484 75.2766 26.708 75.9766 26.708C76.9286 26.708 77.5166 26.288 78.0766 25L71.9166 10.216H75.5286L79.7286 21.192L83.5646 10.216H87.0926L81.2126 25.42C80.0366 28.444 78.7206 29.564 76.3406 29.564Z" fill="#D67326"/>
<path d="M89.2683 25V5.4H92.9363L98.9003 14.668L104.864 5.4H108.532V25H105.088V10.944L98.9003 20.184H98.7883L92.6563 11V25H89.2683ZM118.841 25.336C114.557 25.336 111.253 22.228 111.253 17.664V17.608C111.253 13.38 114.249 9.908 118.477 9.908C123.181 9.908 125.561 13.604 125.561 17.86C125.561 18.168 125.533 18.476 125.505 18.812H114.641C115.005 21.22 116.713 22.564 118.897 22.564C120.549 22.564 121.725 21.948 122.901 20.8L124.889 22.564C123.489 24.244 121.557 25.336 118.841 25.336ZM114.613 16.572H122.201C121.977 14.388 120.689 12.68 118.449 12.68C116.377 12.68 114.921 14.276 114.613 16.572ZM132.799 25.252C130.307 25.252 128.543 24.16 128.543 20.912V13.128H126.667V10.216H128.543V6.156H131.931V10.216H135.907V13.128H131.931V20.38C131.931 21.696 132.603 22.228 133.751 22.228C134.507 22.228 135.179 22.06 135.851 21.724V24.496C135.011 24.972 134.059 25.252 132.799 25.252ZM150.612 25H147.252V23.18C146.244 24.384 144.704 25.308 142.464 25.308C139.664 25.308 137.2 23.712 137.2 20.744V20.688C137.2 17.412 139.748 15.844 143.192 15.844C144.984 15.844 146.132 16.096 147.28 16.46V16.18C147.28 14.136 145.992 13.016 143.64 13.016C141.988 13.016 140.756 13.38 139.412 13.94L138.488 11.224C140.112 10.496 141.708 9.992 144.116 9.992C148.484 9.992 150.612 12.288 150.612 16.236V25ZM147.336 19.652V18.812C146.468 18.476 145.264 18.224 143.948 18.224C141.82 18.224 140.56 19.092 140.56 20.52V20.576C140.56 21.976 141.82 22.76 143.416 22.76C145.656 22.76 147.336 21.5 147.336 19.652ZM153.717 25V4.56H157.105V25H153.717Z" fill="#27216B"/>
</g>
<g filter="url(#filter1_d_24_85)">
<path d="M50.352 41L52.96 35.36H53.36L55.968 41H55.512L54.8 39.432H51.496L50.784 41H50.352ZM51.672 39.056H54.624L53.152 35.816L51.672 39.056ZM60.1427 41.08C59.5507 41.08 58.9027 40.84 58.4707 40.488L58.7027 40.176C59.1507 40.52 59.6467 40.712 60.1667 40.712C60.7187 40.712 61.1507 40.408 61.1507 39.936V39.92C61.1507 39.44 60.6387 39.264 60.0707 39.104C59.4067 38.912 58.6707 38.712 58.6707 37.984V37.968C58.6707 37.312 59.2227 36.84 60.0147 36.84C60.5027 36.84 61.0547 37.016 61.4627 37.288L61.2547 37.616C60.8787 37.368 60.4307 37.208 59.9987 37.208C59.4387 37.208 59.0707 37.512 59.0707 37.92V37.936C59.0707 38.392 59.6227 38.56 60.2067 38.728C60.8627 38.912 61.5507 39.152 61.5507 39.872V39.888C61.5507 40.616 60.9267 41.08 60.1427 41.08ZM64.2873 41.096C63.0793 41.096 62.1993 40.12 62.1993 38.976V38.96C62.1993 37.816 63.0873 36.824 64.3033 36.824C65.5113 36.824 66.3913 37.8 66.3913 38.944V38.96C66.3913 40.104 65.5033 41.096 64.2873 41.096ZM64.3033 40.728C65.2713 40.728 65.9673 39.936 65.9673 38.976V38.96C65.9673 37.976 65.2313 37.192 64.2873 37.192C63.3193 37.192 62.6233 37.984 62.6233 38.944V38.96C62.6233 39.944 63.3593 40.728 64.3033 40.728ZM67.3325 41V35.16H67.7245V41H67.3325ZM70.5007 41.096C69.4687 41.096 68.8687 40.392 68.8687 39.416V36.92H69.2607V39.344C69.2607 40.184 69.7327 40.736 70.5567 40.736C71.3567 40.736 71.9727 40.128 71.9727 39.28V36.92H72.3647V41H71.9727V40.24C71.7007 40.72 71.2447 41.096 70.5007 41.096ZM74.8949 42.184L74.4549 41.976L75.0629 41.08C74.0229 40.944 73.2549 40.032 73.2549 38.976V38.96C73.2549 37.816 74.1669 36.824 75.3349 36.824C76.1029 36.824 76.5829 37.176 76.9669 37.576L76.6869 37.864C76.3349 37.504 75.9349 37.192 75.3269 37.192C74.3989 37.192 73.6789 37.968 73.6789 38.944V38.96C73.6789 39.944 74.4229 40.728 75.3589 40.728C75.9349 40.728 76.3829 40.432 76.7269 40.048L76.9989 40.288C76.5989 40.744 76.1269 41.064 75.4309 41.096L74.8949 42.184ZM79.0253 41.096C78.2653 41.096 77.4493 40.664 77.4493 39.816V39.8C77.4493 38.952 78.1773 38.472 79.2333 38.472C79.8013 38.472 80.1933 38.544 80.5853 38.648V38.472C80.5853 37.648 80.0813 37.224 79.2413 37.224C78.7453 37.224 78.3373 37.36 77.9613 37.552L77.8173 37.208C78.2653 37 78.7053 36.856 79.2653 36.856C79.8173 36.856 80.2573 37.008 80.5533 37.304C80.8253 37.576 80.9693 37.952 80.9693 38.456V41H80.5853V40.32C80.3053 40.712 79.8013 41.096 79.0253 41.096ZM79.0493 40.728C79.8813 40.728 80.5933 40.216 80.5933 39.472V39.008C80.2493 38.92 79.7933 38.824 79.2093 38.824C78.3453 38.824 77.8653 39.208 77.8653 39.776V39.792C77.8653 40.384 78.4253 40.728 79.0493 40.728ZM78.4493 36.312L78.1773 36.24C78.3293 35.664 78.5293 35.496 78.8493 35.496C79.1533 35.496 79.6013 35.824 79.8733 35.824C80.0653 35.824 80.1533 35.728 80.2733 35.424L80.5453 35.496C80.3933 36.072 80.1933 36.24 79.8733 36.24C79.5693 36.24 79.1213 35.912 78.8493 35.912C78.6573 35.912 78.5693 36.008 78.4493 36.312ZM83.867 41.096C82.659 41.096 81.779 40.12 81.779 38.976V38.96C81.779 37.816 82.667 36.824 83.883 36.824C85.091 36.824 85.971 37.8 85.971 38.944V38.96C85.971 40.104 85.083 41.096 83.867 41.096ZM83.883 40.728C84.851 40.728 85.547 39.936 85.547 38.976V38.96C85.547 37.976 84.811 37.192 83.867 37.192C82.899 37.192 82.203 37.984 82.203 38.944V38.96C82.203 39.944 82.939 40.728 83.883 40.728ZM90.6546 41.096C89.6706 41.096 88.6706 40.304 88.6706 38.976V38.96C88.6706 37.632 89.6706 36.824 90.6546 36.824C91.4706 36.824 91.9986 37.288 92.3346 37.8V35.16H92.7266V41H92.3346V40.088C91.9826 40.624 91.4626 41.096 90.6546 41.096ZM90.6946 40.72C91.5426 40.72 92.3586 40.008 92.3586 38.968V38.952C92.3586 37.904 91.5426 37.2 90.6946 37.2C89.8066 37.2 89.0946 37.848 89.0946 38.944V38.96C89.0946 40.032 89.8386 40.72 90.6946 40.72ZM95.6159 41.096C94.5439 41.096 93.6159 40.24 93.6159 38.968V38.952C93.6159 37.768 94.4479 36.824 95.5519 36.824C96.6959 36.824 97.4239 37.752 97.4239 38.96C97.4239 39.032 97.4239 39.056 97.4159 39.12H94.0319C94.1039 40.136 94.8319 40.728 95.6319 40.728C96.2639 40.728 96.6959 40.448 97.0319 40.088L97.3039 40.328C96.8879 40.776 96.3999 41.096 95.6159 41.096ZM94.0319 38.768H96.9999C96.9439 37.944 96.4719 37.184 95.5359 37.184C94.7279 37.184 94.1039 37.864 94.0319 38.768ZM98.4877 41V37.28H97.8957V36.92H98.4877V36.52C98.4877 36.056 98.6157 35.688 98.8477 35.456C99.0557 35.248 99.3437 35.136 99.7037 35.136C99.9518 35.136 100.128 35.168 100.312 35.232V35.6C100.08 35.528 99.9118 35.496 99.7037 35.496C99.1437 35.496 98.8797 35.832 98.8797 36.528V36.92H100.304V37.28H98.8797V41H98.4877ZM101.2 41V36.92H101.592V41H101.2ZM101.152 35.856V35.32H101.64V35.856H101.152ZM102.818 41V36.92H103.21V37.68C103.482 37.2 103.938 36.824 104.682 36.824C105.714 36.824 106.314 37.528 106.314 38.504V41H105.922V38.576C105.922 37.736 105.45 37.184 104.626 37.184C103.826 37.184 103.21 37.792 103.21 38.64V41H102.818ZM107.413 35.856V35.32H107.901V35.856H107.413ZM107.461 41V36.92H107.853V41H107.461ZM110.437 41.072C109.805 41.072 109.293 40.728 109.293 39.952V37.28H108.701V36.92H109.293V35.616H109.685V36.92H111.117V37.28H109.685V39.912C109.685 40.496 110.029 40.704 110.501 40.704C110.701 40.704 110.869 40.664 111.101 40.56V40.928C110.893 41.024 110.693 41.072 110.437 41.072ZM111.968 35.856V35.32H112.456V35.856H111.968ZM112.016 41V36.92H112.408V41H112.016ZM115.048 41.032L113.216 36.92H113.672L115.216 40.56L116.776 36.92H117.216L115.384 41.032H115.048ZM119.005 41.096C118.245 41.096 117.429 40.664 117.429 39.816V39.8C117.429 38.952 118.157 38.472 119.213 38.472C119.781 38.472 120.173 38.544 120.565 38.648V38.472C120.565 37.648 120.061 37.224 119.221 37.224C118.725 37.224 118.317 37.36 117.941 37.552L117.797 37.208C118.245 37 118.685 36.856 119.245 36.856C119.797 36.856 120.237 37.008 120.533 37.304C120.805 37.576 120.949 37.952 120.949 38.456V41H120.565V40.32C120.285 40.712 119.781 41.096 119.005 41.096ZM119.029 40.728C119.861 40.728 120.573 40.216 120.573 39.472V39.008C120.229 38.92 119.773 38.824 119.189 38.824C118.325 38.824 117.845 39.208 117.845 39.776V39.792C117.845 40.384 118.405 40.728 119.029 40.728ZM121.951 41V40.32H122.479V41H121.951Z" fill="#828181"/>
</g>
<g filter="url(#filter2_di_24_85)">
<path d="M4 3.47729H8V38.4773L4 41.4773V3.47729Z" fill="#D67326"/>
<path d="M7.99999 3.47731L25.5765 19.1363L23 22.4773L4.99999 6.66156L7.99999 3.47731Z" fill="#D67326"/>
<path d="M37 3.4774L20.0548 19.1361L22.9998 22.4768L42 3.47729L37 3.4774Z" fill="#D67326"/>
</g>
<g filter="url(#filter3_i_24_85)">
<path d="M9 39.4773H13V43.4773H4L9 39.4773Z" fill="#27216B"/>
<path d="M9 12L13 15.5V39.4773H9V12Z" fill="#27216B"/>
<path d="M13 15.5L18 20L23 24.4774L23 29.4774L8.99992 16.914L13 15.5Z" fill="#27216B"/>
<path d="M42.0001 10.4773L42 5.47729L22.8859 24.59L23 29.4775L42.0001 10.4773Z" fill="#27216B"/>
<path d="M38 12.4772L42 10.4773V43.4772H38V12.4772Z" fill="#27216B"/>
<rect x="32" y="39.4773" width="7" height="4" fill="#27216B"/>
<rect x="32" y="33.4773" width="4" height="6" fill="#27216B"/>
</g>
<defs>
<filter id="filter0_d_24_85" x="46.52" y="4.56006" width="114.585" height="33.0039" filterUnits="userSpaceOnUse" color-interpolation-filters="sRGB">
<feFlood flood-opacity="0" result="BackgroundImageFix"/>
<feColorMatrix in="SourceAlpha" type="matrix" values="0 0 0 0 0 0 0 0 0 0 0 0 0 0 0 0 0 0 127 0" result="hardAlpha"/>
<feOffset dy="4"/>
<feGaussianBlur stdDeviation="2"/>
<feComposite in2="hardAlpha" operator="out"/>
<feColorMatrix type="matrix" values="0 0 0 0 0 0 0 0 0 0 0 0 0 0 0 0 0 0 0.25 0"/>
<feBlend mode="normal" in2="BackgroundImageFix" result="effect1_dropShadow_24_85"/>
<feBlend mode="normal" in="SourceGraphic" in2="effect1_dropShadow_24_85" result="shape"/>
</filter>
<filter id="filter1_d_24_85" x="46.3521" y="35.136" width="80.127" height="15.0481" filterUnits="userSpaceOnUse" color-interpolation-filters="sRGB">
<feFlood flood-opacity="0" result="BackgroundImageFix"/>
<feColorMatrix in="SourceAlpha" type="matrix" values="0 0 0 0 0 0 0 0 0 0 0 0 0 0 0 0 0 0 127 0" result="hardAlpha"/>
<feOffset dy="4"/>
<feGaussianBlur stdDeviation="2"/>
<feComposite in2="hardAlpha" operator="out"/>
<feColorMatrix type="matrix" values="0 0 0 0 0 0 0 0 0 0 0 0 0 0 0 0 0 0 0.25 0"/>
<feBlend mode="normal" in2="BackgroundImageFix" result="effect1_dropShadow_24_85"/>
<feBlend mode="normal" in="SourceGraphic" in2="effect1_dropShadow_24_85" result="shape"/>
</filter>
<filter id="filter2_di_24_85" x="0" y="3.47729" width="46" height="46" filterUnits="userSpaceOnUse" color-interpolation-filters="sRGB">
<feFlood flood-opacity="0" result="BackgroundImageFix"/>
<feColorMatrix in="SourceAlpha" type="matrix" values="0 0 0 0 0 0 0 0 0 0 0 0 0 0 0 0 0 0 127 0" result="hardAlpha"/>
<feOffset dy="4"/>
<feGaussianBlur stdDeviation="2"/>
<feComposite in2="hardAlpha" operator="out"/>
<feColorMatrix type="matrix" values="0 0 0 0 0 0 0 0 0 0 0 0 0 0 0 0 0 0 0.25 0"/>
<feBlend mode="normal" in2="BackgroundImageFix" result="effect1_dropShadow_24_85"/>
<feBlend mode="normal" in="SourceGraphic" in2="effect1_dropShadow_24_85" result="shape"/>
<feColorMatrix in="SourceAlpha" type="matrix" values="0 0 0 0 0 0 0 0 0 0 0 0 0 0 0 0 0 0 127 0" result="hardAlpha"/>
<feOffset dy="4"/>
<feGaussianBlur stdDeviation="2"/>
<feComposite in2="hardAlpha" operator="arithmetic" k2="-1" k3="1"/>
<feColorMatrix type="matrix" values="0 0 0 0 0 0 0 0 0 0 0 0 0 0 0 0 0 0 0.25 0"/>
<feBlend mode="normal" in2="shape" result="effect2_innerShadow_24_85"/>
</filter>
<filter id="filter3_i_24_85" x="4" y="5.47729" width="38" height="42" filterUnits="userSpaceOnUse" color-interpolation-filters="sRGB">
<feFlood flood-opacity="0" result="BackgroundImageFix"/>
<feBlend mode="normal" in="SourceGraphic" in2="BackgroundImageFix" result="shape"/>
<feColorMatrix in="SourceAlpha" type="matrix" values="0 0 0 0 0 0 0 0 0 0 0 0 0 0 0 0 0 0 127 0" result="hardAlpha"/>
<feOffset dy="4"/>
<feGaussianBlur stdDeviation="2"/>
<feComposite in2="hardAlpha" operator="arithmetic" k2="-1" k3="1"/>
<feColorMatrix type="matrix" values="0 0 0 0 0 0 0 0 0 0 0 0 0 0 0 0 0 0 0.25 0"/>
<feBlend mode="normal" in2="shape" result="effect1_innerShadow_24_85"/>
</filter>
</defs>
</svg>
